# xmcd CD database file
#
# Track frame offsets:
#	150
#	16649
#	31347
#	44699
#	62849
#	75889
#	100350
#	116494
#	142588
#	161068
#	179309
#	198044
#
# Disc length: 2854 seconds
#
# Revision: 0
# Processed by: cddbd v1.5PL3 Copyright (c) Steve Scherf et al.
# Submitted via: CDex 1.51
#
DISCID=8b0b240c
DTITLE=Mary Rademacher - Rad Hot!
DYEAR=1999
DGENRE=Jazz
TTITLE0=I Just Found Out About Love
TTITLE1=Ms. Cellie's Blues (Sister)
TTITLE2=Me, Myself and I (are all in love with you)
TTITLE3=Hit Me With A Hot Note And Watch Me Bounce
TTITLE4=Embraceable You
TTITLE5=Besame Mucho
TTITLE6=Rhythm Is Our Business
TTITLE7=At Last
TTITLE8=Let The Good Times Roll
TTITLE9=It Had To Be You
TTITLE10=The Shadow Of Your Smile
TTITLE11=I'll Be Seeing You
EXTD=YEAR: 1999
EXTT0=
EXTT1=
EXTT2=
EXTT3=
EXTT4=
EXTT5=
EXTT6=
EXTT7=
EXTT8=
EXTT9=
EXTT10=
EXTT11=
PLAYORDER=
